<svg width="168" height="38" viewBox="0 0 168 38" fill="none" xmlns="http://www.w3.org/2000/svg">
<g filter="url(#filter0_d_571_51)">
<mask id="path-1-inside-1_571_51" fill="white">
<path fill-rule="evenodd" clip-rule="evenodd" d="M82.3435 27.8424C85.003 29.3033 88.3962 29.9099 91.6261 29.9099V29.913C94.856 29.8718 98.2493 29.2652 100.825 27.8456V17.9561H94.2408V24.6825C93.4237 25.0064 92.5265 25.1271 91.5844 25.1271C90.6424 25.1271 89.742 25.0064 88.9666 24.6825V5.2274C89.7837 4.90347 90.6456 4.78278 91.5844 4.78278C92.5233 4.78278 93.4653 4.90347 94.2408 5.2274V11.957H100.825V2.06746C98.2108 0.606582 94.8976 0 91.6261 0C88.3546 0 84.9613 0.647867 82.3435 2.06746V27.8424ZM103.687 27.6804C106.346 29.1794 109.698 29.9099 113.175 29.9099C116.609 29.8686 120.003 29.1794 122.579 27.6804V2.18814C119.961 0.689153 116.69 0 113.175 0C109.66 0 106.305 0.730438 103.687 2.18814V27.6804ZM113.136 4.82407C114.28 4.82407 115.222 4.98604 115.997 5.30997V24.5618C115.18 24.927 114.242 25.089 113.136 25.089C112.031 25.089 111.089 24.927 110.313 24.5618V5.30997C111.092 4.98604 111.992 4.82407 113.136 4.82407ZM134.069 18.966H132.31V29.5446H125.645V0.365219H134.069C138.078 0.365219 141.103 1.17505 143.474 2.83601V16.4952C141.144 18.118 138.075 18.966 134.069 18.966ZM136.851 5.38937C136.239 4.94475 135.418 4.7415 134.028 4.7415H132.227V14.5897H134.028C135.377 14.5897 136.194 14.3865 136.851 13.9831V5.38937ZM157.415 18.966V29.5446H164V2.14685C161.587 0.730439 158.236 0 154.964 0C151.693 0 148.299 0.727263 145.887 2.14685V29.5446H152.51V18.966H157.415ZM154.961 4.57953C155.861 4.57953 156.72 4.7415 157.415 5.06543H157.412V14.3452H152.506V5.06543C153.202 4.7415 154.061 4.57953 154.961 4.57953ZM31.6842 22.1389V5.24013H34.8364V22.1389H31.6842ZM65.4543 18.3865V21.6295V21.6338L74.4868 18.3185H74.5082V14.9863H74.4868L65.4543 11.6541V14.8972L70.0884 16.6418L65.4543 18.3865ZM56.2634 23.9642L61.5741 7.06542H64.7263L59.4156 23.9642H56.2634ZM13.0625 11.7984V15.0373L8.42416 16.7862L13.0625 18.5435V21.7908L4.01713 18.4586H4V15.1307H4.01713L13.0625 11.7984ZM26.3521 11.3527C27.2515 12.329 27.7226 13.6195 27.6669 14.9396V22.1389H24.5147V15.6018C24.5533 14.8717 24.3177 14.1586 23.8552 13.5898C23.4183 13.0846 22.7716 12.8045 22.0992 12.8342C20.1248 12.8342 19.1355 14.1925 19.1355 16.905V22.1389H15.9833V10.3212H19.1355V11.3867C20.1377 10.4231 21.4953 9.90947 22.8915 9.96889C24.1935 9.91371 25.4527 10.4188 26.3521 11.3527ZM52.6615 22.1389H50.0318L47.4536 15.1773L44.8496 22.1389H42.2199L37.8001 10.3H41.1706L43.6547 17.3804L46.2158 10.3H48.6784L51.2396 17.4017L53.7236 10.3H57.0942L52.67 22.1389H52.6615Z"/>
</mask>
<path fill-rule="evenodd" clip-rule="evenodd" d="M82.3435 27.8424C85.003 29.3033 88.3962 29.9099 91.6261 29.9099V29.913C94.856 29.8718 98.2493 29.2652 100.825 27.8456V17.9561H94.2408V24.6825C93.4237 25.0064 92.5265 25.1271 91.5844 25.1271C90.6424 25.1271 89.742 25.0064 88.9666 24.6825V5.2274C89.7837 4.90347 90.6456 4.78278 91.5844 4.78278C92.5233 4.78278 93.4653 4.90347 94.2408 5.2274V11.957H100.825V2.06746C98.2108 0.606582 94.8976 0 91.6261 0C88.3546 0 84.9613 0.647867 82.3435 2.06746V27.8424ZM103.687 27.6804C106.346 29.1794 109.698 29.9099 113.175 29.9099C116.609 29.8686 120.003 29.1794 122.579 27.6804V2.18814C119.961 0.689153 116.69 0 113.175 0C109.66 0 106.305 0.730438 103.687 2.18814V27.6804ZM113.136 4.82407C114.28 4.82407 115.222 4.98604 115.997 5.30997V24.5618C115.18 24.927 114.242 25.089 113.136 25.089C112.031 25.089 111.089 24.927 110.313 24.5618V5.30997C111.092 4.98604 111.992 4.82407 113.136 4.82407ZM134.069 18.966H132.31V29.5446H125.645V0.365219H134.069C138.078 0.365219 141.103 1.17505 143.474 2.83601V16.4952C141.144 18.118 138.075 18.966 134.069 18.966ZM136.851 5.38937C136.239 4.94475 135.418 4.7415 134.028 4.7415H132.227V14.5897H134.028C135.377 14.5897 136.194 14.3865 136.851 13.9831V5.38937ZM157.415 18.966V29.5446H164V2.14685C161.587 0.730439 158.236 0 154.964 0C151.693 0 148.299 0.727263 145.887 2.14685V29.5446H152.51V18.966H157.415ZM154.961 4.57953C155.861 4.57953 156.72 4.7415 157.415 5.06543H157.412V14.3452H152.506V5.06543C153.202 4.7415 154.061 4.57953 154.961 4.57953ZM31.6842 22.1389V5.24013H34.8364V22.1389H31.6842ZM65.4543 18.3865V21.6295V21.6338L74.4868 18.3185H74.5082V14.9863H74.4868L65.4543 11.6541V14.8972L70.0884 16.6418L65.4543 18.3865ZM56.2634 23.9642L61.5741 7.06542H64.7263L59.4156 23.9642H56.2634ZM13.0625 11.7984V15.0373L8.42416 16.7862L13.0625 18.5435V21.7908L4.01713 18.4586H4V15.1307H4.01713L13.0625 11.7984ZM26.3521 11.3527C27.2515 12.329 27.7226 13.6195 27.6669 14.9396V22.1389H24.5147V15.6018C24.5533 14.8717 24.3177 14.1586 23.8552 13.5898C23.4183 13.0846 22.7716 12.8045 22.0992 12.8342C20.1248 12.8342 19.1355 14.1925 19.1355 16.905V22.1389H15.9833V10.3212H19.1355V11.3867C20.1377 10.4231 21.4953 9.90947 22.8915 9.96889C24.1935 9.91371 25.4527 10.4188 26.3521 11.3527ZM52.6615 22.1389H50.0318L47.4536 15.1773L44.8496 22.1389H42.2199L37.8001 10.3H41.1706L43.6547 17.3804L46.2158 10.3H48.6784L51.2396 17.4017L53.7236 10.3H57.0942L52.67 22.1389H52.6615Z" fill="#F7DD43"/>
<path d="M91.6261 29.9099H92.6261V28.9099H91.6261V29.9099ZM82.3435 27.8424H81.3435V28.434L81.862 28.7189L82.3435 27.8424ZM91.6261 29.913H90.6261V30.9259L91.6389 30.913L91.6261 29.913ZM100.825 27.8456L101.308 28.7214L101.825 28.4363V27.8456H100.825ZM100.825 17.9561H101.825V16.9561H100.825V17.9561ZM94.2408 17.9561V16.9561H93.2408V17.9561H94.2408ZM94.2408 24.6825L94.6093 25.6121L95.2408 25.3617V24.6825H94.2408ZM88.9666 24.6825H87.9666V25.3485L88.5811 25.6052L88.9666 24.6825ZM88.9666 5.2274L88.5981 4.29779L87.9666 4.54813V5.2274H88.9666ZM94.2408 5.2274H95.2408V4.5614L94.6262 4.30468L94.2408 5.2274ZM94.2408 11.957H93.2408V12.957H94.2408V11.957ZM100.825 11.957V12.957H101.825V11.957H100.825ZM100.825 2.06746H101.825V1.48068L101.313 1.19448L100.825 2.06746ZM82.3435 2.06746L81.8668 1.18839L81.3435 1.47216V2.06746H82.3435ZM113.175 29.9099L113.175 30.9099L113.187 30.9098L113.175 29.9099ZM103.687 27.6804H102.687V28.2647L103.196 28.5516L103.687 27.6804ZM122.579 27.6804L123.082 28.5448L123.579 28.2555V27.6804H122.579ZM122.579 2.18814H123.579V1.60841L123.076 1.32034L122.579 2.18814ZM103.687 2.18814L103.2 1.31446L102.687 1.60039V2.18814H103.687ZM115.997 5.30997H116.997V4.64397L116.383 4.38725L115.997 5.30997ZM115.997 24.5618L116.406 25.4747L116.997 25.2102V24.5618H115.997ZM110.313 24.5618H109.313V25.1962L109.887 25.4665L110.313 24.5618ZM110.313 5.30997L109.929 4.38669L109.313 4.64291V5.30997H110.313ZM132.31 18.966V17.966H131.31V18.966H132.31ZM132.31 29.5446V30.5446H133.31V29.5446H132.31ZM125.645 29.5446H124.645V30.5446H125.645V29.5446ZM125.645 0.365219V-0.634781H124.645V0.365219H125.645ZM143.474 2.83601H144.474V2.31556L144.047 2.01696L143.474 2.83601ZM143.474 16.4952L144.045 17.3157L144.474 17.0173V16.4952H143.474ZM136.851 5.38937H137.851V4.87981L137.438 4.58032L136.851 5.38937ZM132.227 4.7415V3.7415H131.227V4.7415H132.227ZM132.227 14.5897H131.227V15.5897H132.227V14.5897ZM136.851 13.9831L137.374 14.8353L137.851 14.5426V13.9831H136.851ZM157.415 29.5446H156.415V30.5446H157.415V29.5446ZM157.415 18.966H158.415V17.966H157.415V18.966ZM164 29.5446V30.5446H165V29.5446H164ZM164 2.14685H165V1.57432L164.506 1.28447L164 2.14685ZM145.887 2.14685L145.379 1.28497L144.887 1.57497V2.14685H145.887ZM145.887 29.5446H144.887V30.5446H145.887V29.5446ZM152.51 29.5446V30.5446H153.51V29.5446H152.51ZM152.51 18.966V17.966H151.51V18.966H152.51ZM157.415 5.06543V6.06543L157.838 4.15897L157.415 5.06543ZM157.412 5.06543V4.06543H156.412V5.06543H157.412ZM157.412 14.3452V15.3452H158.412V14.3452H157.412ZM152.506 14.3452H151.506V15.3452H152.506V14.3452ZM152.506 5.06543L152.084 4.15897L151.506 4.42811V5.06543H152.506ZM31.6842 5.24013V4.24013H30.6842V5.24013H31.6842ZM31.6842 22.1389H30.6842V23.1389H31.6842V22.1389ZM34.8364 5.24013H35.8364V4.24013H34.8364V5.24013ZM34.8364 22.1389V23.1389H35.8364V22.1389H34.8364ZM65.4543 18.3865L65.102 17.4506L64.4543 17.6944V18.3865H65.4543ZM65.4543 21.6338H64.4543V23.066L65.7989 22.5725L65.4543 21.6338ZM74.4868 18.3185V17.3185H74.3091L74.1423 17.3798L74.4868 18.3185ZM74.5082 18.3185V19.3185H75.5082V18.3185H74.5082ZM74.5082 14.9863H75.5082V13.9863H74.5082V14.9863ZM74.4868 14.9863L74.1407 15.9245L74.3083 15.9863H74.4868V14.9863ZM65.4543 11.6541L65.8005 10.7159L64.4543 10.2193V11.6541H65.4543ZM65.4543 14.8972H64.4543V15.5892L65.102 15.8331L65.4543 14.8972ZM70.0884 16.6418L70.4407 17.5777L72.9265 16.6418L70.4407 15.7059L70.0884 16.6418ZM61.5741 7.06542V6.06542H60.8401L60.6201 6.76562L61.5741 7.06542ZM56.2634 23.9642L55.3094 23.6644L54.9009 24.9642H56.2634V23.9642ZM64.7263 7.06542L65.6803 7.36523L66.0887 6.06542H64.7263V7.06542ZM59.4156 23.9642V24.9642H60.1495L60.3695 24.264L59.4156 23.9642ZM13.0625 15.0373L13.4153 15.973L14.0625 15.7289V15.0373H13.0625ZM13.0625 11.7984H14.0625V10.3644L12.7168 10.8601L13.0625 11.7984ZM8.42416 16.7862L8.07136 15.8505L5.59575 16.7839L8.06986 17.7213L8.42416 16.7862ZM13.0625 18.5435H14.0625V17.853L13.4168 17.6084L13.0625 18.5435ZM13.0625 21.7908L12.7168 22.7292L14.0625 23.2249V21.7908H13.0625ZM4.01713 18.4586L4.36281 17.5203L4.19547 17.4586H4.01713V18.4586ZM4 18.4586H3V19.4586H4V18.4586ZM4 15.1307V14.1307H3V15.1307H4ZM4.01713 15.1307V16.1307H4.19547L4.36281 16.069L4.01713 15.1307ZM27.6669 14.9396L26.6678 14.8975L26.6669 14.9185V14.9396H27.6669ZM26.3521 11.3527L27.0876 10.6752L27.08 10.667L27.0723 10.659L26.3521 11.3527ZM27.6669 22.1389V23.1389H28.6669V22.1389H27.6669ZM24.5147 22.1389H23.5147V23.1389H24.5147V22.1389ZM24.5147 15.6018L23.5161 15.5491L23.5147 15.5754V15.6018H24.5147ZM23.8552 13.5898L24.631 12.9588L24.6215 12.9471L24.6116 12.9356L23.8552 13.5898ZM22.0992 12.8342V13.8342H22.1213L22.1434 13.8332L22.0992 12.8342ZM19.1355 22.1389V23.1389H20.1355V22.1389H19.1355ZM15.9833 22.1389H14.9833V23.1389H15.9833V22.1389ZM15.9833 10.3212V9.32121H14.9833V10.3212H15.9833ZM19.1355 10.3212H20.1355V9.32121H19.1355V10.3212ZM19.1355 11.3867H18.1355V13.7354L19.8286 12.1075L19.1355 11.3867ZM22.8915 9.96889L22.849 10.968L22.8915 10.9698L22.9339 10.968L22.8915 9.96889ZM50.0318 22.1389L49.0941 22.4862L49.3358 23.1389H50.0318V22.1389ZM47.4536 15.1773L48.3913 14.83L47.4582 12.3106L46.5169 14.827L47.4536 15.1773ZM44.8496 22.1389V23.1389H45.5432L45.7862 22.4893L44.8496 22.1389ZM42.2199 22.1389L41.2831 22.4887L41.5259 23.1389H42.2199V22.1389ZM37.8001 10.3V9.30001H36.3593L36.8632 10.6498L37.8001 10.3ZM41.1706 10.3L42.1143 9.96896L41.8796 9.30001H41.1706V10.3ZM43.6547 17.3804L42.7111 17.7115L43.6403 20.3601L44.5951 17.7206L43.6547 17.3804ZM46.2158 10.3V9.30001H45.5141L45.2754 9.95986L46.2158 10.3ZM48.6784 10.3L49.6191 9.96076L49.3809 9.30001H48.6784V10.3ZM51.2396 17.4017L50.2989 17.7409L51.254 20.3892L52.1835 17.7318L51.2396 17.4017ZM53.7236 10.3V9.30001H53.014L52.7797 9.96984L53.7236 10.3ZM57.0942 10.3L58.0309 10.6501L58.5354 9.30001H57.0942V10.3ZM52.67 22.1389V23.1389H53.3639L53.6068 22.489L52.67 22.1389ZM91.6261 28.9099C88.5 28.9099 85.2891 28.3195 82.8249 26.9659L81.862 28.7189C84.7168 30.287 88.2924 30.9099 91.6261 30.9099V28.9099ZM92.6261 29.913V29.9099H90.6261V29.913H92.6261ZM100.343 26.9698C97.9638 28.2807 94.7526 28.873 91.6133 28.9131L91.6389 30.913C94.9593 30.8705 98.5347 30.2497 101.308 28.7214L100.343 26.9698ZM99.8255 17.9561V27.8456H101.825V17.9561H99.8255ZM94.2408 18.9561H100.825V16.9561H94.2408V18.9561ZM95.2408 24.6825V17.9561H93.2408V24.6825H95.2408ZM91.5844 26.1271C92.6073 26.1271 93.639 25.9968 94.6093 25.6121L93.8722 23.7529C93.2083 24.0161 92.4457 24.1271 91.5844 24.1271V26.1271ZM88.5811 25.6052C89.5224 25.9984 90.5675 26.1271 91.5844 26.1271V24.1271C90.7173 24.1271 89.9617 24.0144 89.3521 23.7597L88.5811 25.6052ZM87.9666 5.2274V24.6825H89.9666V5.2274H87.9666ZM91.5844 3.78278C90.5597 3.78278 89.5648 3.91451 88.5981 4.29779L89.3351 6.15701C90.0025 5.89242 90.7315 5.78278 91.5844 5.78278V3.78278ZM94.6262 4.30468C93.6815 3.91002 92.5925 3.78278 91.5844 3.78278V5.78278C92.4541 5.78278 93.2492 5.89691 93.8553 6.15012L94.6262 4.30468ZM95.2408 11.957V5.2274H93.2408V11.957H95.2408ZM100.825 10.957H94.2408V12.957H100.825V10.957ZM99.8255 2.06746V11.957H101.825V2.06746H99.8255ZM91.6261 1C94.7929 1 97.9208 1.59004 100.338 2.94044L101.313 1.19448C98.5008 -0.376873 95.0023 -1 91.6261 -1V1ZM82.8201 2.94653C85.2497 1.62902 88.4658 1 91.6261 1V-1C88.2434 -1 84.6729 -0.333289 81.8668 1.18839L82.8201 2.94653ZM83.3435 27.8424V2.06746H81.3435V27.8424H83.3435ZM113.175 28.9099C109.826 28.9099 106.653 28.2046 104.178 26.8093L103.196 28.5516C106.039 30.1542 109.57 30.9099 113.175 30.9099V28.9099ZM122.076 26.8161C119.698 28.1996 116.493 28.8699 113.163 28.9099L113.187 30.9098C116.726 30.8672 120.307 30.1593 123.082 28.5448L122.076 26.8161ZM121.579 2.18814V27.6804H123.579V2.18814H121.579ZM113.175 1C116.57 1 119.657 1.66707 122.082 3.05594L123.076 1.32034C120.266 -0.28876 116.81 -1 113.175 -1V1ZM104.173 3.06182C106.608 1.70624 109.785 1 113.175 1V-1C109.534 -1 106.002 -0.245363 103.2 1.31446L104.173 3.06182ZM104.687 27.6804V2.18814H102.687V27.6804H104.687ZM116.383 4.38725C115.452 3.99814 114.37 3.82407 113.136 3.82407V5.82407C114.19 5.82407 114.993 5.97393 115.612 6.23269L116.383 4.38725ZM116.997 24.5618V5.30997H114.997V24.5618H116.997ZM113.136 26.089C114.337 26.089 115.425 25.9132 116.406 25.4747L115.589 23.6488C114.936 23.9408 114.146 24.089 113.136 24.089V26.089ZM109.887 25.4665C110.84 25.9152 111.941 26.089 113.136 26.089V24.089C112.12 24.089 111.337 23.9388 110.739 23.6571L109.887 25.4665ZM109.313 5.30997V24.5618H111.313V5.30997H109.313ZM113.136 3.82407C111.896 3.82407 110.859 3.99994 109.929 4.38669L110.697 6.23326C111.325 5.97213 112.088 5.82407 113.136 5.82407V3.82407ZM132.31 19.966H134.069V17.966H132.31V19.966ZM133.31 29.5446V18.966H131.31V29.5446H133.31ZM125.645 30.5446H132.31V28.5446H125.645V30.5446ZM124.645 0.365219V29.5446H126.645V0.365219H124.645ZM134.069 -0.634781H125.645V1.36522H134.069V-0.634781ZM144.047 2.01696C141.458 0.203036 138.212 -0.634781 134.069 -0.634781V1.36522C137.944 1.36522 140.747 2.14707 142.9 3.65505L144.047 2.01696ZM144.474 16.4952V2.83601H142.474V16.4952H144.474ZM134.069 19.966C138.213 19.966 141.501 19.0882 144.045 17.3157L142.902 15.6747C140.787 17.1479 137.936 17.966 134.069 17.966V19.966ZM134.028 5.7415C135.341 5.7415 135.905 5.93848 136.263 6.19841L137.438 4.58032C136.572 3.95102 135.496 3.7415 134.028 3.7415V5.7415ZM132.227 5.7415H134.028V3.7415H132.227V5.7415ZM133.227 14.5897V4.7415H131.227V14.5897H133.227ZM134.028 13.5897H132.227V15.5897H134.028V13.5897ZM136.327 13.131C135.888 13.4008 135.278 13.5897 134.028 13.5897V15.5897C135.475 15.5897 136.5 15.3721 137.374 14.8353L136.327 13.131ZM135.851 5.38937V13.9831H137.851V5.38937H135.851ZM158.415 29.5446V18.966H156.415V29.5446H158.415ZM164 28.5446H157.415V30.5446H164V28.5446ZM163 2.14685V29.5446H165V2.14685H163ZM154.964 1C158.113 1 161.276 1.70716 163.494 3.00924L164.506 1.28447C161.899 -0.246285 158.359 -1 154.964 -1V1ZM146.394 3.00874C148.609 1.70518 151.813 1 154.964 1V-1C151.573 -1 147.989 -0.250657 145.379 1.28497L146.394 3.00874ZM146.887 29.5446V2.14685H144.887V29.5446H146.887ZM152.51 28.5446H145.887V30.5446H152.51V28.5446ZM151.51 18.966V29.5446H153.51V18.966H151.51ZM157.415 17.966H152.51V19.966H157.415V17.966ZM157.838 4.15897C156.981 3.75988 155.971 3.57953 154.961 3.57953V5.57953C155.751 5.57953 156.459 5.72311 156.993 5.97189L157.838 4.15897ZM157.412 6.06543H157.415V4.06543H157.412V6.06543ZM158.412 14.3452V5.06543H156.412V14.3452H158.412ZM152.506 15.3452H157.412V13.3452H152.506V15.3452ZM151.506 5.06543V14.3452H153.506V5.06543H151.506ZM154.961 3.57953C153.951 3.57953 152.941 3.75988 152.084 4.15897L152.929 5.97189C153.463 5.72311 154.171 5.57953 154.961 5.57953V3.57953ZM30.6842 5.24013V22.1389H32.6842V5.24013H30.6842ZM34.8364 4.24013H31.6842V6.24013H34.8364V4.24013ZM35.8364 22.1389V5.24013H33.8364V22.1389H35.8364ZM31.6842 23.1389H34.8364V21.1389H31.6842V23.1389ZM66.4543 21.6295V18.3865H64.4543V21.6295H66.4543ZM66.4543 21.6338V21.6295H64.4543V21.6338H66.4543ZM74.1423 17.3798L65.1098 20.695L65.7989 22.5725L74.8314 19.2573L74.1423 17.3798ZM74.5082 17.3185H74.4868V19.3185H74.5082V17.3185ZM73.5082 14.9863V18.3185H75.5082V14.9863H73.5082ZM74.4868 15.9863H74.5082V13.9863H74.4868V15.9863ZM65.1082 12.5923L74.1407 15.9245L74.8329 14.0481L65.8005 10.7159L65.1082 12.5923ZM66.4543 14.8972V11.6541H64.4543V14.8972H66.4543ZM70.4407 15.7059L65.8067 13.9613L65.102 15.8331L69.736 17.5777L70.4407 15.7059ZM65.8067 19.3223L70.4407 17.5777L69.736 15.7059L65.102 17.4506L65.8067 19.3223ZM60.6201 6.76562L55.3094 23.6644L57.2174 24.264L62.5281 7.36523L60.6201 6.76562ZM64.7263 6.06542H61.5741V8.06542H64.7263V6.06542ZM60.3695 24.264L65.6803 7.36523L63.7723 6.76562L58.4616 23.6644L60.3695 24.264ZM56.2634 24.9642H59.4156V22.9642H56.2634V24.9642ZM14.0625 15.0373V11.7984H12.0625V15.0373H14.0625ZM8.77697 17.7218L13.4153 15.973L12.7097 14.1016L8.07136 15.8505L8.77697 17.7218ZM13.4168 17.6084L8.77847 15.851L8.06986 17.7213L12.7082 19.4787L13.4168 17.6084ZM14.0625 21.7908V18.5435H12.0625V21.7908H14.0625ZM3.67145 19.397L12.7168 22.7292L13.4081 20.8525L4.36281 17.5203L3.67145 19.397ZM4 19.4586H4.01713V17.4586H4V19.4586ZM3 15.1307V18.4586H5V15.1307H3ZM4.01713 14.1307H4V16.1307H4.01713V14.1307ZM12.7168 10.8601L3.67145 14.1923L4.36281 16.069L13.4081 12.7368L12.7168 10.8601ZM28.666 14.9818C28.7329 13.3964 28.167 11.847 27.0876 10.6752L25.6166 12.0303C26.3359 12.8111 26.7123 13.8425 26.6678 14.8975L28.666 14.9818ZM28.6669 22.1389V14.9396H26.6669V22.1389H28.6669ZM24.5147 23.1389H27.6669V21.1389H24.5147V23.1389ZM23.5147 15.6018V22.1389H25.5147V15.6018H23.5147ZM23.0793 14.2207C23.3876 14.5997 23.5414 15.07 23.5161 15.5491L25.5133 15.6545C25.5651 14.6734 25.2479 13.7174 24.631 12.9588L23.0793 14.2207ZM22.1434 13.8332C22.5099 13.817 22.8618 13.9698 23.0988 14.2439L24.6116 12.9356C23.9749 12.1994 23.0333 11.7919 22.0551 11.8351L22.1434 13.8332ZM20.1355 16.905C20.1355 15.6408 20.3713 14.8723 20.6854 14.441C20.9566 14.0685 21.3679 13.8342 22.0992 13.8342V11.8342C20.8562 11.8342 19.7856 12.279 19.0686 13.2638C18.3943 14.1898 18.1355 15.4567 18.1355 16.905H20.1355ZM20.1355 22.1389V16.905H18.1355V22.1389H20.1355ZM15.9833 23.1389H19.1355V21.1389H15.9833V23.1389ZM14.9833 10.3212V22.1389H16.9833V10.3212H14.9833ZM19.1355 9.32121H15.9833V11.3212H19.1355V9.32121ZM20.1355 11.3867V10.3212H18.1355V11.3867H20.1355ZM22.9341 8.9698C21.2657 8.89878 19.642 9.51243 18.4424 10.6658L19.8286 12.1075C20.6334 11.3338 21.725 10.9201 22.849 10.968L22.9341 8.9698ZM27.0723 10.659C25.974 9.51859 24.4371 8.90249 22.8492 8.96979L22.9339 10.968C23.95 10.9249 24.9313 11.3191 25.6318 12.0464L27.0723 10.659ZM50.0318 23.1389H52.6615V21.1389H50.0318V23.1389ZM46.5158 15.5247L49.0941 22.4862L50.9696 21.7916L48.3913 14.83L46.5158 15.5247ZM45.7862 22.4893L48.3902 15.5277L46.5169 14.827L43.913 21.7886L45.7862 22.4893ZM42.2199 23.1389H44.8496V21.1389H42.2199V23.1389ZM36.8632 10.6498L41.2831 22.4887L43.1568 21.7892L38.7369 9.95025L36.8632 10.6498ZM41.1706 9.30001H37.8001V11.3H41.1706V9.30001ZM44.5983 17.0494L42.1143 9.96896L40.227 10.6311L42.7111 17.7115L44.5983 17.0494ZM45.2754 9.95986L42.7143 17.0403L44.5951 17.7206L47.1562 10.6402L45.2754 9.95986ZM48.6784 9.30001H46.2158V11.3H48.6784V9.30001ZM52.1803 17.0624L49.6191 9.96076L47.7378 10.6393L50.2989 17.7409L52.1803 17.0624ZM52.7797 9.96984L50.2957 17.0715L52.1835 17.7318L54.6675 10.6302L52.7797 9.96984ZM57.0942 9.30001H53.7236V11.3H57.0942V9.30001ZM53.6068 22.489L58.0309 10.6501L56.1575 9.94996L51.7333 21.7889L53.6068 22.489ZM52.6615 23.1389H52.67V21.1389H52.6615V23.1389Z" fill="black" mask="url(#path-1-inside-1_571_51)"/>
</g>
<defs>
<filter id="filter0_d_571_51" x="0" y="0" width="168" height="37.913" filterUnits="userSpaceOnUse" color-interpolation-filters="sRGB">
<feFlood flood-opacity="0" result="BackgroundImageFix"/>
<feColorMatrix in="SourceAlpha" type="matrix" values="0 0 0 0 0 0 0 0 0 0 0 0 0 0 0 0 0 0 127 0" result="hardAlpha"/>
<feOffset dy="4"/>
<feGaussianBlur stdDeviation="2"/>
<feComposite in2="hardAlpha" operator="out"/>
<feColorMatrix type="matrix" values="0 0 0 0 0 0 0 0 0 0 0 0 0 0 0 0 0 0 0.25 0"/>
<feBlend mode="normal" in2="BackgroundImageFix" result="effect1_dropShadow_571_51"/>
<feBlend mode="normal" in="SourceGraphic" in2="effect1_dropShadow_571_51" result="shape"/>
</filter>
</defs>
</svg>
